<svg xmlns="http://www.w3.org/2000/svg" xmlns:xlink="http://www.w3.org/1999/xlink" width="2000" zoomAndPan="magnify" viewBox="0 0 1500 1499.999933" height="2000" preserveAspectRatio="xMidYMid meet" version="1.0"><defs><g/></defs><g fill="#000000" fill-opacity="1"><g transform="translate(406.406254, 1173.749879)"><g><path d="M 455.296875 -237.96875 C 480.378906 -257.394531 497.976562 -274.390625 508.09375 -288.953125 C 518.207031 -303.523438 523.265625 -319.710938 523.265625 -337.515625 C 523.265625 -363.421875 513.753906 -389.523438 494.734375 -415.828125 C 475.722656 -442.140625 448.003906 -466.222656 411.578125 -488.078125 L 250.109375 -583.96875 C 219.347656 -567.78125 197.691406 -552.601562 185.140625 -538.4375 C 172.597656 -524.269531 166.328125 -507.078125 166.328125 -486.859375 C 166.328125 -461.765625 174.421875 -437.679688 190.609375 -414.609375 C 206.796875 -391.546875 229.460938 -371.515625 258.609375 -354.515625 Z M 295.03125 -176.046875 C 255.363281 -197.898438 221.566406 -219.144531 193.640625 -239.78125 C 165.722656 -260.425781 143.0625 -281.066406 125.65625 -301.703125 C 108.257812 -322.347656 95.710938 -343.796875 88.015625 -366.046875 C 80.328125 -388.304688 76.484375 -412.390625 76.484375 -438.296875 C 76.484375 -481.191406 86.800781 -517.8125 107.4375 -548.15625 C 128.082031 -578.507812 157.832031 -601.78125 196.6875 -617.96875 C 168.351562 -641.4375 146.898438 -669.15625 132.328125 -701.125 C 117.765625 -733.101562 110.484375 -767.300781 110.484375 -803.71875 C 110.484375 -866.851562 131.125 -916.628906 172.40625 -953.046875 C 213.6875 -989.472656 269.535156 -1007.6875 339.953125 -1007.6875 C 373.140625 -1007.6875 403.691406 -1003.640625 431.609375 -995.546875 C 459.535156 -987.453125 483.816406 -976.117188 504.453125 -961.546875 C 525.085938 -946.984375 541.070312 -929.582031 552.40625 -909.34375 C 563.738281 -889.113281 569.40625 -867.265625 569.40625 -843.796875 C 569.40625 -817.890625 562.726562 -797.242188 549.375 -781.859375 C 536.019531 -766.484375 517.609375 -758.796875 494.140625 -758.796875 C 473.097656 -758.796875 455.898438 -765.066406 442.546875 -777.609375 C 429.191406 -790.160156 422.515625 -806.554688 422.515625 -826.796875 C 422.515625 -837.316406 424.332031 -846.21875 427.96875 -853.5 C 431.613281 -860.789062 435.457031 -867.066406 439.5 -872.328125 C 443.550781 -877.585938 447.394531 -882.441406 451.03125 -886.890625 C 454.675781 -891.335938 456.5 -896.800781 456.5 -903.28125 C 456.5 -919.46875 445.367188 -932.820312 423.109375 -943.34375 C 400.859375 -953.863281 372.734375 -959.125 338.734375 -959.125 C 295.023438 -959.125 261.03125 -949.003906 236.75 -928.765625 C 212.46875 -908.535156 200.328125 -879.804688 200.328125 -842.578125 C 200.328125 -812.628906 209.835938 -786.117188 228.859375 -763.046875 C 247.878906 -739.984375 280.863281 -715.097656 327.8125 -688.390625 L 400.65625 -645.890625 C 475.914062 -602.179688 529.9375 -559.6875 562.71875 -518.40625 C 595.5 -477.132812 611.890625 -431.410156 611.890625 -381.234375 C 611.890625 -344.804688 603.59375 -312.832031 587 -285.3125 C 570.40625 -257.789062 543.5 -230.269531 506.28125 -202.75 C 568.59375 -151.757812 599.75 -89.84375 599.75 -17 C 599.75 16.996094 593.070312 47.957031 579.71875 75.875 C 566.363281 103.800781 547.953125 127.679688 524.484375 147.515625 C 501.015625 167.347656 472.890625 182.925781 440.109375 194.25 C 407.328125 205.582031 371.109375 211.25 331.453125 211.25 C 293.410156 211.25 258.601562 206.191406 227.03125 196.078125 C 195.46875 185.960938 168.351562 172.203125 145.6875 154.796875 C 123.03125 137.398438 105.222656 116.554688 92.265625 92.265625 C 79.316406 67.984375 72.84375 41.273438 72.84375 12.140625 C 72.84375 -18.617188 79.722656 -43.101562 93.484375 -61.3125 C 107.242188 -79.519531 125.859375 -88.625 149.328125 -88.625 C 170.378906 -88.625 188.59375 -81.335938 203.96875 -66.765625 C 219.34375 -52.203125 227.03125 -34.398438 227.03125 -13.359375 C 227.03125 -0.398438 224.195312 10.929688 218.53125 20.640625 C 212.875 30.347656 206.804688 39.046875 200.328125 46.734375 C 193.847656 54.429688 187.773438 61.71875 182.109375 68.59375 C 176.453125 75.476562 173.625 82.5625 173.625 89.84375 C 173.625 98.75 178.070312 107.25 186.96875 115.34375 C 195.875 123.4375 208.015625 130.515625 223.390625 136.578125 C 238.773438 142.648438 256.378906 147.507812 276.203125 151.15625 C 296.035156 154.800781 316.472656 156.625 337.515625 156.625 C 390.128906 156.625 431.003906 144.882812 460.140625 121.40625 C 489.285156 97.9375 503.859375 64.753906 503.859375 21.859375 C 503.859375 -8.085938 493.738281 -34.59375 473.5 -57.65625 C 453.269531 -80.726562 417.65625 -106.835938 366.65625 -135.984375 Z M 295.03125 -176.046875 "/></g></g></g></svg>