<svg xmlns="http://www.w3.org/2000/svg" xmlns:xlink="http://www.w3.org/1999/xlink" width="2000" zoomAndPan="magnify" viewBox="0 0 1500 1499.999933" height="2000" preserveAspectRatio="xMidYMid meet" version="1.0"><path fill="#000000" d="M 761.4375 506.160156 C 752.914062 467.851562 757.070312 475.695312 740.144531 444.617188 C 728.789062 423.9375 723.3125 407.257812 708.632812 396.582031 C 711.894531 431.722656 706.601562 447.046875 712.078125 480.191406 C 720.542969 531.148438 707.800781 524.285156 688.015625 553.304688 C 705.125 544.996094 714.539062 562.96875 730.359375 566.230469 C 721.585938 584.445312 721.402344 581.613281 708.816406 598.261719 C 687.921875 625.589844 695.523438 630.789062 705.03125 641.34375 C 713.03125 650.144531 719.742188 665.59375 738.882812 671.039062 C 751.777344 649.777344 773.164062 639.929688 788.121094 613.863281 C 795.503906 600.910156 797.351562 586.167969 809.660156 579.0625 C 822.648438 571.367188 831.203125 575.644531 845.726562 563.273438 C 840.679688 547.457031 846.191406 560.199219 837.386719 550.535156 C 802.523438 512.316406 813.386719 511.207031 761.683594 506.222656 M 575.414062 840.195312 C 588.492188 865.613281 622.898438 857.734375 656.808594 915.1875 C 659.457031 919.648438 669.117188 928.050781 680.414062 940.265625 L 662.195312 898.539062 C 679.921875 912.476562 683.921875 910.847656 699.492188 936.449219 C 708.324219 950.945312 723.835938 957.992188 738.699219 975.007812 C 749.4375 987.316406 758.332031 1012.949219 771.132812 1013.074219 L 751.652344 959.714844 L 729.375 917.308594 C 747.097656 931.25 751.097656 929.617188 766.671875 955.222656 C 784.304688 984.179688 795.105469 1009.132812 818.648438 1010.363281 L 851.328125 1028.828125 C 858.039062 1034.492188 872.683594 1044.460938 881.023438 1042.554688 C 886.164062 1042.214844 905.152344 1055.445312 911.796875 1055.785156 L 916.015625 1057.140625 C 887.085938 1024.335938 797.230469 936.910156 787.289062 920.511719 C 772.671875 896.382812 766.269531 889.0625 736.175781 877.675781 C 713.496094 869.089844 713.1875 856.132812 695.492188 824.777344 C 684.351562 805.082031 662.441406 802.191406 650.101562 777.511719 C 646.808594 771.910156 643.945312 748.371094 645.792969 724.707031 C 646.625 713.414062 634.621094 684.703125 610.25 655.53125 C 618.128906 694.148438 621.082031 728.367188 603.078125 741.476562 C 584.03125 755.355469 567.136719 754.894531 578.859375 772.25 C 579.167969 772.710938 579.785156 773.601562 580.183594 774.339844 C 585.242188 776.988281 589.765625 780.351562 593.753906 784.433594 C 601.292969 791.820312 597.601562 791.511719 606.0625 797.820312 C 594.0625 807.238281 584.523438 802.929688 575.660156 796.40625 C 497.648438 738.585938 555.566406 801.296875 575.414062 840.195312 Z M 590.617188 1059.445312 C 567.90625 1076.832031 540.207031 1054.953125 484.96875 1092.34375 C 480.632812 1095.417969 468.320312 1098.710938 452.875 1104.898438 L 487.214844 1074.988281 C 465.246094 1080.003906 462.320312 1076.800781 437.269531 1093.265625 C 423.085938 1102.496094 406.097656 1102.1875 385.324219 1111.328125 C 370.339844 1117.882812 351.476562 1137.207031 339.71875 1131.792969 L 380.15625 1091.941406 L 418.4375 1063.230469 C 396.464844 1068.214844 393.542969 1065.046875 368.492188 1081.511719 C 340.148438 1099.972656 319.6875 1118.039062 297.898438 1109.050781 L 260.445312 1111.820312 C 251.953125 1114.066406 182.4375 1138.53125 175.726562 1133.363281 C 236.226562 1100.128906 312.945312 1075.570312 364.585938 1041.476562 C 388.125 1025.9375 397.050781 1022.027344 429.207031 1024.644531 C 453.367188 1026.613281 459.210938 1015.042969 488.601562 994.300781 C 507.066406 981.253906 545.164062 999.011719 566.890625 981.992188 C 567.535156 981.5625 592.921875 978.914062 593.753906 977.929688 L 652.222656 958.359375 C 662.839844 974.914062 632.867188 987.132812 616.527344 996.761719 C 616.003906 997.070312 615.082031 997.625 614.402344 998.117188 C 608.714844 998.355469 603.195312 999.453125 597.847656 1001.410156 C 587.847656 1004.886719 591.324219 1006.179688 580.984375 1008.242188 C 587.753906 1021.90625 598.308594 1022.121094 609.050781 1019.964844 C 704.417969 1000.980469 625.234375 1032.796875 590.617188 1059.445312 Z M 538.453125 743.167969 C 526.851562 781.910156 504.910156 805.113281 487.0625 840.101562 C 469.859375 873.519531 424.59375 863.179688 380 938.726562 C 376.523438 944.636719 363.816406 955.683594 348.953125 971.746094 L 372.894531 916.816406 C 349.597656 935.28125 344.335938 933.035156 323.65625 966.730469 C 312.085938 985.777344 291.652344 994.917969 272.109375 1017.441406 C 257.984375 1033.722656 246.292969 1067.355469 229.425781 1067.507812 L 255.214844 997.316406 L 284.511719 941.589844 C 261.214844 960.050781 255.953125 957.773438 235.273438 991.472656 C 212.101562 1029.566406 197.882812 1062.246094 166.925781 1064 L 123.84375 1088.402344 C 115.011719 1095.882812 95.746094 1108.960938 84.761719 1106.464844 C 78.023438 1106.035156 53.035156 1123.453125 44.140625 1123.914062 L 38.816406 1125.699219 C 76.882812 1082.617188 195.113281 967.53125 208.070312 945.957031 C 227.394531 914.230469 235.765625 904.570312 275.402344 889.613281 C 305.285156 878.320312 305.652344 861.304688 328.949219 820.070312 C 343.566406 794.160156 372.402344 790.3125 388.648438 757.878906 C 410.960938 719.84375 414.007812 692.796875 434.808594 671.5 C 511.742188 592.96875 489.492188 597.925781 507.433594 546.351562 C 512.328125 532.164062 525.039062 523.425781 537.347656 512.222656 C 583.507812 470.15625 571.9375 506.867188 608.125 515.609375 C 616.894531 505.421875 637.113281 458.527344 644.4375 443.753906 C 656.964844 418.183594 669.671875 397.257812 683.550781 372.917969 C 693.859375 361.65625 730.820312 381.316406 738.574219 393.503906 C 749.589844 410.921875 761.53125 441.171875 770.300781 461.417969 C 778.734375 480.898438 775.410156 478.097656 793.199219 482.957031 C 810.984375 487.820312 810.308594 487.574219 821.753906 501.421875 C 833.203125 515.269531 851.699219 540.964844 869.699219 548.226562 L 886.535156 531.085938 C 918.507812 545.210938 968.269531 613.28125 998.332031 644.945312 L 1040.214844 667.714844 C 1077.542969 668.699219 1096.164062 746 1121.027344 788.3125 C 1137.246094 820.777344 1166.078125 824.59375 1180.726562 850.503906 C 1203.992188 891.738281 1204.394531 908.753906 1234.242188 920.078125 C 1255.601562 928.140625 1277.820312 1000.488281 1320.746094 1016.550781 C 1389.09375 1042.183594 1436.054688 1102.496094 1461.535156 1131.390625 C 1451.6875 1128.316406 1391.527344 1095.726562 1384.601562 1096.1875 C 1373.585938 1098.679688 1359 1079.910156 1350.167969 1072.433594 L 1322.007812 1075.511719 C 1291.050781 1073.910156 1297.390625 1060.125 1274.28125 1022.089844 C 1253.785156 988.238281 1248.492188 990.515625 1225.226562 972.175781 C 1241.84375 1002.578125 1242.519531 1028.152344 1262.769531 1057.816406 C 1270.21875 1068.738281 1277.847656 1087.820312 1293.542969 1097.050781 C 1253.324219 1096.679688 1205.902344 1030.121094 1185.835938 997.285156 C 1170.757812 972.515625 1170.296875 960.359375 1158.480469 951.988281 C 1151.371094 946.941406 1148.386719 956.175781 1150.386719 970.453125 C 1153.984375 995.902344 1167.28125 1004.085938 1170.910156 1039.074219 C 1164.511719 1036.273438 1161.679688 1018.890625 1156.695312 1012.089844 C 1142.570312 992.332031 1132.261719 973.777344 1129.675781 969.40625 C 1115.671875 946.234375 1095.824219 948.789062 1090.070312 939.710938 C 1082.3125 927.402344 1058.648438 904.386719 1057.140625 889.0625 C 1055.632812 873.734375 1076.5 865.550781 1088.128906 854.625 C 1089.429688 853.609375 1090.625 852.484375 1091.714844 851.246094 C 1092.808594 850.007812 1093.773438 848.679688 1094.617188 847.261719 C 1095.457031 845.839844 1096.160156 844.355469 1096.726562 842.808594 C 1097.292969 841.257812 1097.710938 839.667969 1097.976562 838.039062 C 1099.148438 831.886719 1097.394531 818.46875 1097.671875 815.730469 C 1098.839844 803.421875 1097.394531 810.621094 1092.839844 793.390625 C 1090.617188 785.488281 1087.894531 777.761719 1084.679688 770.207031 C 1081.464844 762.65625 1077.78125 755.339844 1073.628906 748.257812 C 1069.472656 741.179688 1064.882812 734.394531 1059.859375 727.902344 C 1054.832031 721.414062 1049.414062 715.269531 1043.601562 709.472656 C 1040.953125 708.859375 1025.691406 692.363281 1022.613281 691.71875 C 1014.210938 689.871094 1014.089844 690.394531 1008.242188 687.226562 C 1002.394531 684.054688 1000.304688 680.886719 993.195312 675.5625 L 976.855469 652.453125 C 970.144531 636.449219 917.921875 590.753906 900.320312 577.738281 C 898.042969 592.9375 895.703125 594.324219 891.332031 608.695312 C 885.027344 629.402344 888.996094 631.128906 874.960938 641.3125 C 860.285156 651.992188 841.113281 676.546875 839.726562 699.535156 C 847.511719 693.378906 845.265625 696.703125 852.035156 687.625 C 852.589844 686.578125 853.421875 685.347656 853.882812 684.546875 L 864.777344 683.5 C 903.550781 690.488281 842.835938 706.917969 877.394531 763.292969 C 882.007812 770.832031 888.441406 775.109375 880.472656 783.019531 L 879.425781 800.929688 C 897.367188 837.210938 921.460938 848.101562 928.386719 853.242188 C 950.695312 869.734375 946.417969 881.398438 970.050781 897.554688 C 1060.28125 981.683594 1001.410156 924.109375 1065.449219 1025.074219 C 1079.050781 1046.613281 1092.746094 1057.785156 1104.253906 1084.28125 C 1029.722656 1033.042969 1031.507812 994.054688 995.871094 966.699219 C 962.820312 941.21875 932.726562 905.769531 927.925781 903.214844 C 887.304688 881.675781 884.472656 853.457031 858.5 826.007812 C 843.882812 810.621094 797.84375 777.140625 792.890625 758.800781 L 790.582031 753.816406 L 773.347656 733.199219 C 770.578125 729.691406 765.101562 727.289062 763.007812 723.230469 C 757.871094 719.105469 752.390625 724.765625 747.621094 722.183594 C 740.945312 708.152344 719.09375 709.875 711.15625 702.519531 C 704.691406 696.671875 712.941406 681.5 701.429688 675.625 C 669.671875 659.40625 665.242188 652.976562 650.101562 630.910156 L 606.1875 588.507812 C 600.710938 579.277344 579.476562 555.089844 570.089844 545.425781 C 562.027344 537.273438 565.996094 541.519531 559.011719 556.414062 C 553.070312 569.089844 555.566406 587.890625 545.347656 599.0625 L 537.347656 608.972656 C 549.195312 602.632812 547.164062 617.648438 558.273438 613.679688 C 553.65625 665.316406 552.488281 625.988281 524.421875 679.132812 C 486.417969 751.417969 518.636719 697.132812 482.261719 750.894531 C 481.832031 751.539062 481.03125 752.707031 480.476562 753.664062 C 473.84375 757.152344 467.90625 761.574219 462.660156 766.925781 C 452.71875 776.679688 457.582031 776.15625 446.472656 784.558594 C 462.230469 796.867188 474.90625 791.265625 486.476562 782.679688 C 496.511719 775.296875 528.882812 745.140625 538.453125 743.167969 Z M 538.453125 743.167969 " fill-opacity="1" fill-rule="evenodd"/></svg>