<?xml version="1.0" standalone="no"?>
<!DOCTYPE svg PUBLIC "-//W3C//DTD SVG 20010904//EN"
 "http://www.w3.org/TR/2001/REC-SVG-20010904/DTD/svg10.dtd">
<svg version="1.0" xmlns="http://www.w3.org/2000/svg"
 width="2000.000000pt" height="2000.000000pt" viewBox="0 0 2000.000000 2000.000000"
 preserveAspectRatio="xMidYMid meet">

<g transform="translate(0.000000,2000.000000) scale(0.100000,-0.100000)"
fill="#000000" stroke="none">
<path d="M7425 18593 c-563 -31 -1188 -321 -1653 -766 -318 -306 -513 -709
-592 -1227 -97 -625 8 -1387 270 -1976 159 -357 336 -624 800 -1209 456 -576
620 -816 776 -1140 109 -226 164 -384 218 -625 99 -445 120 -946 119 -2890 0
-2092 -51 -3827 -165 -5655 -42 -660 -45 -1033 -10 -1195 57 -260 139 -419
296 -576 176 -174 397 -252 596 -210 308 65 544 342 627 736 15 69 18 131 17
335 0 239 -3 274 -62 795 -121 1069 -222 2157 -318 3420 -31 413 -35 504 -31
695 8 313 42 479 139 667 102 199 185 281 503 493 256 172 347 244 433 346
154 180 240 388 279 674 21 154 21 498 -1 843 -9 140 -16 356 -16 480 1 439
45 609 183 703 44 30 57 34 116 34 76 -1 111 -16 177 -77 55 -50 104 -131 137
-225 47 -130 58 -258 67 -748 9 -458 14 -528 56 -675 76 -271 277 -421 499
-375 126 27 266 120 350 234 43 59 90 168 115 267 41 158 42 253 22 1789 -12
917 -16 1502 -10 1572 16 203 79 391 166 497 55 66 145 131 227 163 60 24 84
28 170 28 89 0 106 -3 157 -28 67 -33 128 -97 170 -181 16 -32 52 -145 79
-250 86 -333 128 -392 369 -516 165 -86 221 -125 279 -194 111 -136 135 -342
81 -701 -68 -453 -53 -673 104 -1455 99 -492 142 -791 178 -1240 16 -204 16
-966 0 -1170 -31 -388 -73 -713 -142 -1095 -54 -303 -70 -434 -70 -588 0 -327
90 -563 284 -744 156 -146 339 -195 539 -144 249 64 464 266 567 533 90 234
120 418 127 804 9 455 -13 679 -152 1564 -105 668 -141 931 -194 1410 -116
1034 -169 2050 -158 3017 11 997 85 1381 422 2188 318 762 405 1066 405 1409
0 436 -167 778 -445 912 -98 47 -174 64 -285 64 -177 0 -316 -56 -517 -207
-43 -32 -226 -204 -408 -383 -188 -186 -369 -355 -420 -393 -112 -83 -265
-161 -369 -187 -204 -51 -435 -1 -613 134 -34 26 -101 88 -148 138 -127 136
-224 284 -435 668 -258 470 -544 725 -852 759 -133 15 -217 -4 -468 -107 -213
-87 -247 -95 -385 -95 -104 0 -131 4 -205 28 -164 53 -285 128 -579 354 -91
71 -202 153 -246 182 -188 125 -449 233 -670 278 -170 34 -314 44 -500 34z"/>
</g>
</svg>
