<?xml version="1.0" standalone="no"?>
<!DOCTYPE svg PUBLIC "-//W3C//DTD SVG 20010904//EN"
 "http://www.w3.org/TR/2001/REC-SVG-20010904/DTD/svg10.dtd">
<svg version="1.0" xmlns="http://www.w3.org/2000/svg"
 width="2000.000000pt" height="2000.000000pt" viewBox="0 0 2000.000000 2000.000000"
 preserveAspectRatio="xMidYMid meet">

<g transform="translate(0.000000,2000.000000) scale(0.100000,-0.100000)"
fill="#000000" stroke="none">
<path d="M6136 18629 l-26 -31 0 -369 0 -369 -374 0 -375 0 -28 -24 -28 -24
-3 -318 c-2 -228 1 -326 9 -346 23 -57 34 -58 434 -58 l365 0 0 -532 0 -533
-299 -93 c-654 -203 -1152 -362 -1179 -376 -56 -29 -92 -93 -92 -162 0 -34 95
-352 335 -1128 185 -595 338 -1088 341 -1097 4 -15 -30 -17 -388 -22 -331 -4
-403 -7 -453 -22 -212 -60 -378 -229 -431 -438 -24 -92 -15 -260 18 -349 55
-146 162 -267 301 -337 113 -57 153 -61 670 -61 l467 0 0 -564 c0 -311 -5
-633 -10 -718 -63 -921 -327 -2060 -780 -3368 -229 -658 -459 -1244 -818
-2075 -117 -270 -133 -329 -139 -516 -9 -240 9 -310 174 -683 63 -144 117
-266 120 -272 3 -7 -33 -13 -108 -18 -338 -20 -648 -154 -891 -384 -206 -196
-345 -443 -414 -735 -15 -61 -18 -144 -21 -567 -3 -360 -1 -506 8 -537 15 -55
68 -116 122 -142 l43 -21 2943 0 2943 0 -8 23 c-13 37 -17 1098 -4 1212 46
414 201 807 451 1146 54 73 237 473 282 614 72 229 60 511 -31 723 -16 37 -71
162 -121 277 -757 1725 -1304 3480 -1480 4751 -60 431 -63 487 -68 1191 l-5
651 494 4 c554 5 550 5 687 85 183 108 301 314 301 522 -1 226 -141 447 -341
540 -46 21 -108 44 -137 50 -33 7 -195 11 -437 11 -212 0 -385 3 -385 7 0 4
152 494 337 1088 249 797 338 1096 341 1141 5 76 -21 133 -76 168 -21 14 -312
110 -687 226 -357 111 -685 213 -727 226 l-78 25 0 534 0 535 374 0 375 0 28
24 28 24 0 337 0 337 -28 24 -28 24 -375 0 -374 0 0 369 0 369 -26 31 -26 31
-333 0 -333 0 -26 -31z"/>
<path d="M13375 17054 c-120 -26 -228 -85 -314 -173 -123 -123 -185 -265 -185
-426 -1 -131 29 -236 95 -333 16 -24 29 -45 27 -46 -2 -2 -39 -15 -83 -31
-246 -87 -455 -234 -579 -408 -47 -66 -115 -206 -116 -237 -1 -41 -11 -40
-255 13 -250 55 -288 57 -339 24 -35 -23 -59 -74 -59 -122 1 -23 140 -485 332
-1102 182 -584 331 -1064 331 -1067 0 -3 -173 -6 -385 -6 -242 0 -404 -4 -437
-11 -29 -6 -91 -29 -137 -50 -67 -31 -98 -54 -160 -116 -152 -154 -209 -342
-166 -548 44 -212 204 -387 415 -457 62 -21 87 -22 559 -26 l493 -4 -5 -631
c-3 -348 -10 -681 -16 -742 -24 -238 -43 -398 -72 -590 -182 -1203 -679 -2795
-1387 -4445 -74 -173 -155 -362 -180 -420 -76 -179 -95 -269 -95 -450 0 -210
18 -274 176 -634 l123 -281 -100 -8 c-369 -28 -680 -168 -926 -417 -165 -166
-268 -332 -339 -545 -67 -199 -71 -247 -71 -780 0 -433 2 -473 19 -510 23 -51
89 -111 138 -125 27 -8 1098 -10 3849 -8 l3811 3 43 30 c23 16 55 47 69 69
l26 40 3 480 c3 522 -1 580 -53 761 -34 119 -128 308 -208 420 -77 107 -244
271 -347 340 -217 145 -452 225 -707 241 -62 4 -113 10 -113 13 0 4 51 124
114 267 167 381 194 484 183 698 -8 159 -40 267 -150 518 -122 275 -250 580
-367 873 -714 1788 -1127 3316 -1220 4515 -6 74 -13 401 -17 727 l-6 591 494
4 c436 4 500 7 549 22 169 54 308 171 378 317 51 106 66 183 59 302 -6 112
-34 204 -85 283 -78 120 -183 204 -313 252 l-74 27 -411 5 -412 5 80 255 c447
1435 581 1868 585 1895 7 46 -13 100 -48 129 -57 49 -74 48 -345 -10 -137 -30
-250 -54 -251 -54 -1 0 -4 14 -8 31 -14 61 -58 156 -111 235 -113 171 -325
326 -562 411 -53 19 -98 36 -100 38 -2 1 17 41 42 86 60 111 80 197 73 314
-10 167 -66 286 -191 410 -85 83 -156 126 -266 159 -81 24 -211 29 -295 10z"/>
</g>
</svg>
